<svg xmlns="http://www.w3.org/2000/svg" viewBox="73.59999999999998 131.24 652.76 537.52">
  <path d="M 345.08 315.4 C 339.96 335.52 314.92 324.04 325.2 327.08 L 164.8 285.72 c -8.72 -2.28 -14.04 -11.2 -11.72 -19.92 c 2.28 -8.72 11.16 -14.04 19.88 -11.76 l 160.44 41.48 C 342.08 297.76 347.4 306.68 345.08 315.4 M 333.36 404.92 L 172.92 363.44 C 164.2 361.24 155.32 366.48 153.04 375.2 C 150.76 383.92 156.04 392.8 164.8 395.08 l 160.4 41.48 c -10.48 -2.48 14.92 7.68 19.88 -11.76 C 347.4 416.04 342.08 407.2 333.36 404.92 M 285.24 500.28 L 172.92 471.2 c -8.72 -2.28 -17.6 3.04 -19.88 11.8 c -2.28 8.72 3 17.56 11.72 19.8 l 112.36 29.04 c -10.6 -2.48 14.8 7.72 19.8 -11.72 C 299.2 511.36 294 502.48 285.24 500.28 M 726.36 147.08 v 428.04 c 0 7.44 -5.04 13.92 -12.24 15.72 l -310.2 77.92 c -2.8 0.64 -5.36 0.64 -8.16 0 l -309.92 -77.92 c -7.16 -1.8 -12.24 -8.28 -12.24 -15.72 V 147.08 c 0 -10.68 9.96 -18.44 20.36 -15.84 l 305.84 76.84 l 306.16 -76.84 C 716.4 128.64 726.36 136.4 726.36 147.08 M 383.56 237.56 L 106.24 168.12 v 394.28 l 277.32 69.48 V 237.56 z M 693.76 168.12 l -277.56 69.44 v 394.36 l 277.56 -69.48 V 168.12 z M 646.72 265.8 c -2.32 -8.72 -11.16 -14.04 -19.92 -11.76 l -160.44 41.48 c -8.72 2.28 -14.04 11.2 -11.72 19.92 c 5.12 20.12 30.2 8.64 19.92 11.68 l 160.36 -41.36 C 643.68 283.4 649 274.52 646.72 265.8 M 646.72 375.2 c -2.32 -8.72 -11.16 -13.96 -19.92 -11.76 l -160.44 41.44 c -8.72 2.28 -14.04 11.16 -11.72 19.92 c 4.96 19.44 30.36 9.28 19.92 11.76 l 160.36 -41.48 C 643.68 392.8 649 383.92 646.72 375.2 M 598.52 495.4 c -2.2 -8.76 -11.04 -14 -19.8 -11.76 l -112.36 29.04 c -8.72 2.24 -14.04 11.16 -11.72 19.84 c 5.08 20.24 30.2 8.72 19.92 11.72 l 112.28 -28.92 C 595.6 513 600.84 504.12 598.52 495.4" fill="#51cf66"/>
</svg>